<svg aria-hidden="true" style="position: absolute; width: 0; height: 0; overflow: hidden;" version="1.1" xmlns="http://www.w3.org/2000/svg" xmlns:xlink="http://www.w3.org/1999/xlink">
<defs>
<symbol id="icon-chocolate" viewBox="0 0 32 32">
<path fill="#fcf1e0" style="fill: var(--color1, #fcf1e0)" d="M3.944 20.076l10.777-17.424 0.64-0.674 8.236 5.491 0.056 3.314 2.010 3.28-8.88 14.077-12.839-8.063z"></path>
<path fill="none" stroke="#fd9222" style="stroke: var(--color2, #fd9222)" stroke-linejoin="round" stroke-linecap="round" stroke-miterlimit="4" stroke-width="2.6667" d="M22.097 23.031l-14.186-8.864M11.824 7.75l14.185 8.864M11.093 25.016l11.736-19.25M27.639 13.941c-3.040-1.899-4.234-3.384-2.278-6.592l-9.626-6.015-11.736 19.25 14.186 8.864 9.454-15.507z"></path>
</symbol>
<symbol id="icon-facebook" viewBox="0 0 32 32">
<path fill="none" stroke="#111" style="stroke: var(--color3, #111)" stroke-linejoin="miter" stroke-linecap="butt" stroke-miterlimit="4" stroke-width="0.8" d="M8 0.4h16c4.197 0 7.6 3.403 7.6 7.6v16c0 4.197-3.403 7.6-7.6 7.6h-16c-4.197 0-7.6-3.403-7.6-7.6v-16c0-4.197 3.403-7.6 7.6-7.6z"></path>
<path d="M18.112 9.184c0.144 0 0.288 0 0.576 0v2.16c-0.144 0-0.432 0-0.72 0s-0.576 0-0.72 0.144c-0.144 0.144-0.144 0.288-0.144 0.624 0 0.288 0 0.48 0 0.768h1.584v1.824h-1.584v7.92h-2.448v-7.968h-1.296v-1.824h1.296v-0.624c0-1.056 0.144-1.824 0.432-2.16 0.432-0.624 1.296-0.912 2.592-0.912 0.144 0.048 0.288 0.048 0.432 0.048z"></path>
</symbol>
<symbol id="icon-instagram" viewBox="0 0 32 32">
<path fill="none" stroke="#111" style="stroke: var(--color3, #111)" stroke-linejoin="miter" stroke-linecap="butt" stroke-miterlimit="4" stroke-width="0.8" d="M8 0.4h16c4.197 0 7.6 3.403 7.6 7.6v16c0 4.197-3.403 7.6-7.6 7.6h-16c-4.197 0-7.6-3.403-7.6-7.6v-16c0-4.197 3.403-7.6 7.6-7.6z"></path>
<path d="M23.631 12.854c-0.009-0.645-0.129-1.284-0.357-1.887-0.4-1.030-1.215-1.844-2.246-2.242-0.596-0.224-1.227-0.344-1.865-0.358-0.82-0.037-1.081-0.047-3.164-0.047s-2.35 0-3.164 0.047c-0.637 0.014-1.268 0.134-1.864 0.358-1.031 0.399-1.847 1.213-2.246 2.242-0.224 0.595-0.345 1.225-0.357 1.861-0.037 0.82-0.048 1.080-0.048 3.159s0 2.345 0.048 3.159c0.013 0.637 0.133 1.265 0.357 1.862 0.4 1.029 1.215 1.843 2.247 2.241 0.594 0.232 1.224 0.363 1.864 0.383 0.821 0.037 1.082 0.048 3.164 0.048s2.35 0 3.164-0.048c0.637-0.013 1.267-0.133 1.865-0.357 1.031-0.399 1.846-1.213 2.246-2.242 0.224-0.596 0.345-1.224 0.357-1.862 0.037-0.819 0.048-1.079 0.048-3.159-0.002-2.079-0.002-2.343-0.049-3.158zM15.994 19.919c-2.178 0-3.943-1.762-3.943-3.937s1.765-3.937 3.943-3.937c2.177 0 3.943 1.762 3.943 3.937s-1.766 3.937-3.943 3.937zM20.094 12.818c-0.509 0-0.919-0.41-0.919-0.918s0.41-0.918 0.919-0.918c0.508 0 0.919 0.41 0.919 0.918s-0.411 0.918-0.919 0.918z"></path>
<path d="M15.995 18.386c1.327 0 2.402-1.076 2.402-2.402s-1.076-2.402-2.402-2.402c-1.327 0-2.402 1.076-2.402 2.402s1.076 2.402 2.402 2.402z"></path>
</symbol>
<symbol id="icon-twitter" viewBox="0 0 32 32">
<path fill="none" stroke="#111" style="stroke: var(--color3, #111)" stroke-linejoin="miter" stroke-linecap="butt" stroke-miterlimit="4" stroke-width="0.8" d="M8 0.4h16c4.197 0 7.6 3.403 7.6 7.6v16c0 4.197-3.403 7.6-7.6 7.6h-16c-4.197 0-7.6-3.403-7.6-7.6v-16c0-4.197 3.403-7.6 7.6-7.6z"></path>
<path d="M24 11.139c-0.595 0.261-1.229 0.434-1.89 0.518 0.68-0.406 1.199-1.044 1.443-1.813-0.634 0.378-1.334 0.645-2.080 0.794-0.602-0.641-1.46-1.038-2.396-1.038-1.816 0-3.278 1.474-3.278 3.281 0 0.26 0.022 0.51 0.076 0.748-2.727-0.133-5.14-1.44-6.761-3.431-0.283 0.491-0.449 1.053-0.449 1.658 0 1.136 0.585 2.143 1.457 2.726-0.527-0.010-1.044-0.163-1.482-0.404 0 0.010 0 0.023 0 0.036 0 1.594 1.137 2.918 2.628 3.223-0.267 0.073-0.558 0.108-0.86 0.108-0.21 0-0.422-0.012-0.621-0.056 0.425 1.299 1.631 2.254 3.065 2.285-1.116 0.873-2.533 1.399-4.067 1.399-0.269 0-0.527-0.012-0.785-0.045 1.453 0.937 3.175 1.472 5.032 1.472 6.036 0 9.336-5 9.336-9.334 0-0.145-0.005-0.285-0.012-0.424 0.651-0.462 1.198-1.039 1.644-1.703z"></path>
</symbol>
<symbol id="icon-coin" viewBox="0 0 32 32">
<path fill="#fd9222" style="fill: var(--color2, #fd9222)" d="M16 2.667c-7.333 0-13.333 6-13.333 13.333s6 13.333 13.333 13.333 13.333-6 13.333-13.333c0-7.333-6-13.333-13.333-13.333zM16 26.667c-5.867 0-10.667-4.8-10.667-10.667s4.8-10.667 10.667-10.667 10.667 4.8 10.667 10.667c0 5.867-4.8 10.667-10.667 10.667z"></path>
<path fill="#fd9222" style="fill: var(--color2, #fd9222)" d="M17.733 14.667h-3.467c-0.667 0-1.2-0.533-1.2-1.2s0.533-1.2 1.2-1.2h4.933c0.8 0 1.333-0.533 1.333-1.333s-0.533-1.333-1.333-1.333h-1.867v-1.2c0-0.8-0.533-1.333-1.333-1.333s-1.333 0.533-1.333 1.333v1.2h-0.4c-2.133 0-3.867 1.733-3.867 3.867s1.733 3.867 3.867 3.867h3.333c0.667 0 1.2 0.533 1.2 1.2s-0.533 1.2-1.2 1.2h-4.933c-0.8 0-1.333 0.533-1.333 1.333s0.533 1.333 1.333 1.333h2v1.2c0 0.8 0.533 1.333 1.333 1.333s1.333-0.533 1.333-1.333v-1.2h0.4c2.133 0 3.867-1.733 3.867-3.867s-1.733-3.867-3.867-3.867z"></path>
</symbol>
<symbol id="icon-spoon" viewBox="0 0 32 32">
<path fill="#fd9222" style="fill: var(--color2, #fd9222)" d="M15.451 14.106c-0.783-0.95-1.177-2.116-1.177-3.282 0-4.324 5.181-8.642 10.362-8.642 2.86 0 5.181 2.321 5.181 5.182 0 5.182-4.318 10.364-8.646 10.364-1.166 0-2.331-0.394-3.281-1.177l-12.758 12.761c-0.675 0.675-1.77 0.675-2.445 0s-0.675-1.771 0-2.445l12.764-12.761z"></path>
</symbol>
</defs>
</svg>
